inDegrees=yes
name=ik_lifting_orientations
DataType=double
version=3
OpenSimVersion=4.5-2024-01-10-34fd6af
endheader
time	pelvis_tilt	pelvis_list	pelvis_rotation	pelvis_tx	pelvis_ty	pelvis_tz	hip_flexion_r	hip_adduction_r	hip_rotation_r	knee_angle_r	knee_angle_r_beta	ankle_angle_r	subtalar_angle_r	mtp_angle_r	hip_flexion_l	hip_adduction_l	hip_rotation_l	knee_angle_l	knee_angle_l_beta	ankle_angle_l	subtalar_angle_l	mtp_angle_l	lumbar_extension	lumbar_bending	lumbar_rotation	arm_flex_r	arm_add_r	arm_rot_r	elbow_flex_r	pro_sup_r	wrist_flex_r	wrist_dev_r	arm_flex_l	arm_add_l	arm_rot_l	elbow_flex_l	pro_sup_l	wrist_flex_l	wrist_dev_l
1.67	0.08976864745218371	12.76603057697474	-115.2005597813003	0	0.9399999998679526	0	44.33407511686407	-10.14266317207204	0	58.98123202495652	1.029416695718214	-5.034939119309315	0	0	44.33407511686407	-10.14266317207204	0	58.98123202495652	1.029416695718214	-5.034939119309315	0	0	-14.25990353766344	-3.705631970170037	21.88168779700366	34.8554165393051	-7.094195889257587	9.678221856048877	54.632960624896	3.382391704334437	0	0	0	-11.05486099686954	0	86.65805360611589	3.382391704334437	0	0
1.68	0.153992942477342	11.89405237238455	-115.0707740708805	0	0.9399999998679526	0	44.3390583816978	-10.14010236526003	0	58.98881283957132	1.029549005893225	-5.034188494166655	0	0	44.3390583816978	-10.14010236526003	0	58.98881283957132	1.029549005893225	-5.034188494166655	0	0	-13.64978961474842	-3.509770266748085	21.67991607627762	32.54999571989044	-8.707868696514975	10.36536756169276	58.12874816444929	3.362983932854729	0	0	0	-11.07283984672329	0	86.67722802618454	3.362983932854729	0	0
1.69	0.2368246185287902	11.06943000833491	-115.0411068536404	0	0.9399999998679526	0	44.34371813375306	-10.13772818284669	0	58.99589674223734	1.029672643318638	-5.033494621238168	0	0	44.34371813375306	-10.13772818284669	0	58.99589674223734	1.029672643318638	-5.033494621238168	0	0	-13.06952039009139	-3.422365702566978	21.62561887171041	30.44977730497902	-10.22593249722587	10.97835428874212	61.7728235725905	3.344811017132978	0	0	0	-11.08969038581859	0	86.69518244157364	3.344811017132978	0	0
1.7	0.300320211507261	10.25924952599839	-115.0116999711578	0	0.9399999998679526	0	44.34807410340816	-10.13552672802324	0	59.0025139945939	1.029788136159695	-5.032853056484839	0	0	44.34807410340816	-10.13552672802324	0	59.0025139945939	1.029788136159695	-5.032853056484839	0	0	-12.42438806000042	-3.315645818639721	21.65758914512232	28.38717908026852	-11.64956113933151	11.68280243821565	65.37698129785294	3.327800956341034	0	0	0	-11.10547622979859	0	86.71198798665353	3.327800956341034	0	0
1.71	0.3377653605963049	9.385148536100646	-114.8828655116652	0	0.9399999998679526	0	44.35269359074346	-10.13322057572528	0	59.00953961132774	1.029910756303684	-5.032183727196629	0	0	44.35269359074346	-10.13322057572528	0	59.00953961132774	1.029910756303684	-5.032183727196629	0	0	-11.71699496511384	-3.046873763940498	21.49010796409312	25.95890020695325	-13.46854888253566	12.56844748426492	69.44516469569672	3.309724268950345	0	0	0	-11.1222759619765	0	86.72984733954341	3.309724268950345	0	0
1.72	0.3542022059556616	8.563190145970299	-114.3271829279338	0	0.9399999998679526	0	44.35800855357176	-10.13059706891951	0	59.01762353965628	1.030051847469512	-5.031425289480245	0	0	44.35800855357176	-10.13059706891951	0	59.01762353965628	1.030051847469512	-5.031425289480245	0	0	-11.24129788185285	-2.710485666580735	20.769732024656	23.66758532732296	-15.42225772580091	13.3577466539118	73.52502849804802	3.288888504265548	0	0	0	-11.14166333359779	0	86.75043260290279	3.288888504265548	0	0
1.73	0.3456386132898857	7.681890826000884	-113.5013218292423	0	0.9399999998679526	0	44.36349651989365	-10.12792232357197	0	59.02597414863203	1.030197593090686	-5.030655349617164	0	0	44.36349651989365	-10.12792232357197	0	59.02597414863203	1.030197593090686	-5.030655349617164	0	0	-10.99031232479282	-2.41977045156048	19.77738074162777	21.54603599203607	-17.43474381753776	13.97205855735774	77.75242765510437	3.267329062072046	0	0	0	-11.16175294198919	0	86.77173284966041	3.267329062072046	0	0
1.74	0.3840536148811516	6.806817581860891	-112.9973077073769	0	0.9399999998679526	0	44.36810055556428	-10.1256787089615	0	59.03294654768228	1.030319284410876	-5.030009829268155	0	0	44.36810055556428	-10.1256787089615	0	59.03294654768228	1.030319284410876	-5.030009829268155	0	0	-10.55373065774201	-2.29996542635699	19.26505398286427	19.30949723942862	-19.83192751801885	14.40121527575294	82.47322511710975	3.249247035220426	0	0	0	-11.17859757647697	0	86.78959748686884	3.249247035220426	0	0
1.75	0.4114708457067958	5.995542463631407	-112.6253732087698	0	0.9399999998679526	0	44.37241732322168	-10.1235955935254	0	59.03948369210117	1.030433379104664	-5.029412491467504	0	0	44.37241732322168	-10.1235955935254	0	59.03948369210117	1.030433379104664	-5.029412491467504	0	0	-9.990188611426515	-2.14130189116606	18.82552925350532	17.20728381248891	-21.87899922860845	15.01535240761469	86.83808517250925	3.232265898692482	0	0	0	-11.19443393743013	0	86.80637447290752	3.232265898692482	0	0
1.76	0.4419782087793371	5.493606629825625	-112.3058576472449	0	0.9399999998679526	0	44.37709337903159	-10.12136780987592	0	59.0465755620849	1.030557155586003	-5.028776350998608	0	0	44.37709337903159	-10.12136780987592	0	59.0465755620849	1.030557155586003	-5.028776350998608	0	0	-9.138891331198259	-1.917775832903224	18.34236860293306	14.70748820186855	-24.27928052806081	15.10483336141781	91.87116459627941	3.213830575187162	0	0	0	-11.21165287575494	0	86.82458816910894	3.213830575187162	0	0
1.77	0.4451531793196478	4.958374613640426	-111.7676686139878	0	0.9399999998679526	0	44.38253733899761	-10.1188241127433	0	59.05486127090882	1.030701768485842	-5.028054588198388	0	0	44.38253733899761	-10.1188241127433	0	59.05486127090882	1.030701768485842	-5.028054588198388	0	0	-8.37733155975048	-1.691631548749885	17.56958864227207	11.90363718649768	-26.68063781236989	14.97392926329342	97.08335539082533	3.192294679519842	0	0	0	-11.23181549545777	0	86.84586517281836	3.192294679519842	0	0
1.78	0.4559894968073463	4.411336652301815	-111.2332548126053	0	0.9399999998679526	0	44.382932696268	-10.11855837498579	0	59.05533627770336	1.030710058918376	-5.02797276481651	0	0	44.382932696268	-10.11855837498579	0	59.05533627770336	1.030710058918376	-5.02797276481651	0	0	-7.745411899947873	-1.564607058489976	16.92306191589693	8.829330937704748	-29.27168949262121	14.35266982150162	102.676962852559	3.190870987573248	0	0	0	-11.23305198788598	0	86.84727173012104	3.190870987573248	0	0
1.79	0.4729749738533919	3.920815110926328	-111.1641380071864	0	0.9399999998679526	0	44.38802696488027	-10.11620183847569	0	59.06307995007698	1.030845211497491	-5.027306546929992	0	0	44.38802696488027	-10.11620183847569	0	59.06307995007698	1.030845211497491	-5.027306546929992	0	0	-7.103947610168166	-1.475201897830439	16.53488026599253	5.766804049658752	-32.28942623631666	13.6455801657461	108.9227446285732	3.170687852862802	0	0	0	-11.25196685929471	0	86.86721223890602	3.170687852862802	0	0
1.8	0.4897634655328605	3.421201384946779	-110.9706066868207	0	0.9399999998679526	0	44.39346607149862	-10.11372132088141	0	59.07135149917773	1.03098957726354	-5.026608739459752	0	0	44.39346607149862	-10.11372132088141	0	59.07135149917773	1.03098957726354	-5.026608739459752	0	0	-6.480310701433067	-1.399640899557695	15.91874092172132	2.613048624020518	-35.28415584032822	13.0384880717607	115.5315449557683	3.149089179865835	0	0	0	-11.27223946723669	0	86.88855127587595	3.149089179865835	0	0
1.81	0.4468573003626881	3.038147573147198	-109.8410660991532	0	0.9399999998679526	0	44.39663483483572	-10.11224526394294	0	59.07610534009049	1.031072547439583	-5.026191081967992	0	0	44.39663483483572	-10.11224526394294	0	59.07610534009049	1.031072547439583	-5.026191081967992	0	0	-5.892117775126315	-1.172076927453308	14.45677381240476	1.796650315120935	-37.40303955881544	13.35128737551002	119.7037750515107	3.136561389873387	0	0	0	-11.2839597747055	0	86.90092846264771	3.136561389873387	0	0
1.82	0.4215300975371292	2.591696350755841	-108.5320711816313	0	0.9399999998679526	0	44.39949713875784	-10.11092520990824	0	59.08039994713923	1.031147502472663	-5.025818917154375	0	0	44.39949713875784	-10.11092520990824	0	59.08039994713923	1.031147502472663	-5.025818917154375	0	0	-5.343568247608002	-0.9687064311511124	12.80719816057823	2.862806739288876	-38.46544055597963	14.95570821185419	121.8810612659313	3.125228112035997	0	0	0	-11.2945730667168	0	86.9121254993003	3.125228112035997	0	0
1.83	0.3893040954561872	2.159477446156693	-108.6535406366625	0	0.9399999998679526	0	44.40188763926989	-10.1098002361989	0	59.08394124167073	1.031209309722021	-5.025500156439555	0	0	44.40188763926989	-10.1098002361989	0	59.08394124167073	1.031209309722021	-5.025500156439555	0	0	-4.801417556409255	-0.9091911659321815	12.70593932187742	5.420705458065208	-40.00545927031928	17.46049237282113	124.318825454668	3.11580590974626	0	0	0	-11.30336646617796	0	86.92143442828109	3.11580590974626	0	0
1.84	0.3565182752165412	1.785911154921696	-108.7750607826856	0	0.9399999998679526	0	44.40424709887905	-10.10871909686773	0	59.08747401360979	1.031270968224079	-5.025196136566092	0	0	44.40424709887905	-10.10871909686773	0	59.08747401360979	1.031270968224079	-5.025196136566092	0	0	-4.529491925915917	-0.8530137916846841	12.52873084802322	8.450461114599809	-41.52719826548404	20.01967721507941	126.8544053023055	3.10645569691668	0	0	0	-11.31212723370182	0	86.93067224006163	3.10645569691668	0	0
